<svg width="109" height="109" viewBox="0 0 109 109" fill="none" xmlns="http://www.w3.org/2000/svg">
<path d="M1 1V107.956H107.956V1H1ZM48.144 25.9124C50.2403 17.658 56.1363 11.3232 64.3447 8.53241C69.4912 6.77934 75.7357 7.11083 80.8403 9.40501C87.5892 12.4395 92.4907 18.0956 94.6329 25.3201C95.55 28.4332 95.7754 33.0766 95.1569 36.3718C94.2844 40.9127 92.2667 45.1556 89.2951 48.6982C86.7886 51.6803 82.1046 54.5313 77.8517 55.6646C75.1933 56.3735 69.6078 56.5687 67.142 56.0394C56.6604 53.791 49.0402 45.4686 47.5269 34.6292C47.1299 31.824 47.3212 29.1591 48.144 25.9124ZM99.4557 73.3957C96.5038 79.5288 91.3639 86.1362 86.3746 90.211C79.6362 95.7139 71.264 99.482 62.8799 100.778C61.1373 101.04 55.0187 101.614 54.7501 101.531C54.6793 101.509 54.1565 101.451 53.5892 101.4C53.0219 101.349 51.4536 101.194 50.1054 101.046C38.8546 99.8148 28.7149 94.9107 20.5418 86.7455C11.8197 78.0365 6.89595 67.3661 5.71283 54.6099C4.74589 44.1924 7.9166 32.2276 14.1231 22.8687C16.6885 19.0023 19.5762 15.7373 20.0295 16.1867C20.0845 16.2417 19.791 17.6738 19.3744 19.3705C18.0642 24.7227 17.7419 27.7689 17.7392 34.6069C17.7392 41.5694 18.0812 44.6012 19.5303 50.3609C20.6767 54.9165 21.9018 58.1108 24.3283 62.8643C28.5131 71.0636 33.9793 77.2949 41.2077 82.1113C50.2115 88.1094 60.4272 90.3066 71.1329 88.547C77.684 87.47 84.1957 84.5718 89.8034 80.239C93.02 77.7496 97.3935 73.2097 99.761 69.8883C100.89 68.3082 101.857 67.0648 101.924 67.1251C102.122 67.3164 100.926 70.3403 99.4557 73.3957ZM96.3112 65.2318C94.3459 67.9832 89.5885 72.6594 87.0782 74.2998C83.1082 76.8953 78.7964 78.7204 74.4307 79.652C71.9741 80.1761 64.9972 80.5364 62.7554 80.2534C54.5758 79.2235 46.256 75.1147 40.6129 69.3197C35.4926 64.0579 31.6812 56.5857 30.3146 49.1424C29.7277 45.9376 29.7237 39.8268 30.3081 36.6456C30.7575 34.1955 31.9328 30.1391 32.3062 29.7434C32.542 29.4945 32.6311 29.9832 33.0608 33.8732C33.4709 37.5863 34.4287 40.854 36.1503 44.4217C40.9549 54.3793 49.3834 61.0011 60.1704 63.3058C61.8147 63.6569 63.4931 63.7748 66.88 63.7748C70.2669 63.7748 71.9439 63.6569 73.5883 63.3058C83.5459 61.1793 91.5381 55.3397 96.6362 46.4866C98.7469 42.818 100.444 37.7226 100.813 33.9374C101.134 30.6422 101.362 30.4601 102.059 32.939C105.108 43.7679 102.941 55.928 96.306 65.2318H96.3112Z" fill="white" stroke="white"/>
</svg>
