<svg
   xmlns="http://www.w3.org/2000/svg"
   width="158.97197"
   height="88.755951"
   viewBox="0 0 158.97197 88.755951"
   id="goobiEyes">
  <g
     id="Gruppe_4"
     data-name="Gruppe 4"
     transform="translate(-881.00389,-496.50031)">
    <g
       id="Gruppe_3"
       data-name="Gruppe 3"
       transform="translate(295.62,547.21)">
      <g
         id="Gruppe_2"
         data-name="Gruppe 2">
        <path
           id="Pfad_1"
           data-name="Pfad 1"
           d="m 668.137,-20.166 a 88.893,88.893 0 0 1 6,-11.875 43.97,43.97 0 0 1 7.96,-9.787 34.134,34.134 0 0 1 10.44,-6.526 36.763,36.763 0 0 1 13.7,-2.348 41.466,41.466 0 0 1 14.747,2.61 33.174,33.174 0 0 1 12.136,7.96 37.792,37.792 0 0 1 8.222,13.442 55.688,55.688 0 0 1 3,19.314 52.839,52.839 0 0 1 -3.394,19.705 42.8,42.8 0 0 1 -9,14.225 36.646,36.646 0 0 1 -12.92,8.613 41.707,41.707 0 0 1 -15.4,2.871 q -14.356,0 -24.013,-7.309 -9.657,-7.309 -19.048,-23.75 -2.874,6.006 -6.132,11.614 a 48.21,48.21 0 0 1 -7.57,9.918 34.434,34.434 0 0 1 -9.918,6.917 30.978,30.978 0 0 1 -13.18,2.61 41.382,41.382 0 0 1 -14.746,-2.61 33.8,33.8 0 0 1 -12.137,-7.83 37.6,37.6 0 0 1 -8.353,-13.442 55.4,55.4 0 0 1 -3.132,-19.7 53.569,53.569 0 0 1 3.394,-19.967 41.308,41.308 0 0 1 9,-14.094 35.928,35.928 0 0 1 12.92,-8.352 42.754,42.754 0 0 1 15.137,-2.74 45.33,45.33 0 0 1 13.45,1.822 36.422,36.422 0 0 1 10.832,5.48 44.17,44.17 0 0 1 9.266,9.527 140.685,140.685 0 0 1 8.739,13.702 z M 655.608,-0.59 q -9.395,-16.18 -16.7,-23.491 a 23.87,23.87 0 0 0 -17.486,-7.307 q -10.443,0 -17.356,6.394 -6.913,6.394 -6.921,17.357 a 27.637,27.637 0 0 0 2.218,11.614 23.924,23.924 0 0 0 6.137,8.223 24.472,24.472 0 0 0 9.135,4.959 37.931,37.931 0 0 0 10.962,1.566 q 11.481,0 18.139,-5.09 A 46.772,46.772 0 0 0 655.608,-0.59 Z m 17.227,-12.01 q 4.954,7.572 8.873,13.441 a 69.83,69.83 0 0 0 7.7,9.788 29.415,29.415 0 0 0 7.96,6 20.677,20.677 0 0 0 9.4,2.088 28.175,28.175 0 0 0 9.657,-1.7 27.994,27.994 0 0 0 8.351,-4.7 23.4,23.4 0 0 0 5.873,-7.177 19.736,19.736 0 0 0 2.218,-9.4 29.486,29.486 0 0 0 -2.348,-12.4 23.52,23.52 0 0 0 -6.265,-8.352 25.733,25.733 0 0 0 -9,-4.828 36.654,36.654 0 0 0 -10.832,-1.566 q -11.224,0 -18.661,4.828 A 41.967,41.967 0 0 0 672.835,-12.6 Z"
           fill="#ffffff" />
      </g>
    </g>
  </g>
</svg>
