<svg width="107" height="107" viewBox="0 0 107 107" fill="none" xmlns="http://www.w3.org/2000/svg">
<g clip-path="url(#clip0_67_761)">
<rect width="107" height="107" fill="white"/>
<g clip-path="url(#clip1_67_761)">
<path d="M0 0V106.956H106.956V0H0ZM47.144 24.9124C49.2403 16.658 55.1363 10.3232 63.3447 7.53241C68.4912 5.77934 74.7357 6.11083 79.8403 8.40501C86.5892 11.4395 91.4907 17.0956 93.6329 24.3201C94.55 27.4332 94.7754 32.0766 94.1569 35.3718C93.2844 39.9127 91.2667 44.1556 88.2951 47.6982C85.7886 50.6803 81.1046 53.5313 76.8517 54.6646C74.1933 55.3735 68.6078 55.5687 66.142 55.0394C55.6604 52.791 48.0402 44.4686 46.5269 33.6292C46.1299 30.824 46.3212 28.1591 47.144 24.9124V24.9124ZM98.4557 72.3957C95.5038 78.5288 90.3639 85.1362 85.3746 89.211C78.6362 94.7139 70.264 98.482 61.8799 99.7778C60.1373 100.04 54.0187 100.614 53.7501 100.531C53.6793 100.509 53.1565 100.451 52.5892 100.4C52.0219 100.349 50.4536 100.194 49.1054 100.046C37.8546 98.8148 27.7149 93.9107 19.5418 85.7455C10.8197 77.0365 5.89595 66.3661 4.71283 53.6099C3.74589 43.1924 6.9166 31.2276 13.1231 21.8687C15.6885 18.0023 18.5762 14.7373 19.0295 15.1867C19.0845 15.2417 18.791 16.6738 18.3744 18.3705C17.0642 23.7227 16.7419 26.7689 16.7392 33.6069C16.7392 40.5694 17.0812 43.6012 18.5303 49.3609C19.6767 53.9165 20.9018 57.1108 23.3283 61.8643C27.5131 70.0636 32.9793 76.2949 40.2077 81.1113C49.2115 87.1094 59.4272 89.3066 70.1329 87.547C76.684 86.47 83.1957 83.5718 88.8034 79.239C92.02 76.7496 96.3935 72.2097 98.761 68.8883C99.8904 67.3082 100.857 66.0648 100.924 66.1251C101.122 66.3164 99.9258 69.3403 98.4557 72.3957V72.3957ZM95.3112 64.2318C93.3459 66.9832 88.5885 71.6594 86.0782 73.2998C82.1082 75.8953 77.7964 77.7204 73.4307 78.652C70.9741 79.1761 63.9972 79.5364 61.7554 79.2534C53.5758 78.2235 45.256 74.1147 39.6129 68.3197C34.4926 63.0579 30.6812 55.5857 29.3146 48.1424C28.7277 44.9376 28.7237 38.8268 29.3081 35.6456C29.7575 33.1955 30.9328 29.1391 31.3062 28.7434C31.542 28.4945 31.6311 28.9832 32.0608 32.8732C32.4709 36.5863 33.4287 39.854 35.1503 43.4217C39.9549 53.3793 48.3834 60.0011 59.1704 62.3058C60.8147 62.6569 62.4931 62.7748 65.88 62.7748C69.2669 62.7748 70.9439 62.6569 72.5883 62.3058C82.5459 60.1793 90.5381 54.3397 95.6362 45.4866C97.7469 41.818 99.4436 36.7226 99.8131 32.9374C100.134 29.6422 100.362 29.4601 101.059 31.939C104.108 42.7679 101.941 54.928 95.306 64.2318H95.3112Z" fill="white"/>
</g>
</g>
<defs>
<clipPath id="clip0_67_761">
<rect width="107" height="107" fill="white"/>
</clipPath>
<clipPath id="clip1_67_761">
<rect width="420" height="106.956" fill="white"/>
</clipPath>
</defs>
</svg>
